<svg xmlns="http://www.w3.org/2000/svg" xmlns:xlink="http://www.w3.org/1999/xlink" width="2000" zoomAndPan="magnify" viewBox="0 0 1500 1499.999933" height="2000" preserveAspectRatio="xMidYMid meet" version="1.0"><defs><clipPath id="72692b7bfa"><path d="M 21.808594 7.320312 L 1478.191406 7.320312 L 1478.191406 1500 L 21.808594 1500 Z M 21.808594 7.320312 " clip-rule="nonzero"/></clipPath><clipPath id="b9c2bb5647"><path d="M 96.808594 7.320312 L 1403.191406 7.320312 C 1423.082031 7.320312 1442.160156 15.222656 1456.226562 29.285156 C 1470.289062 43.351562 1478.191406 62.429688 1478.191406 82.320312 L 1478.191406 1425 C 1478.191406 1444.890625 1470.289062 1463.96875 1456.226562 1478.03125 C 1442.160156 1492.097656 1423.082031 1500 1403.191406 1500 L 96.808594 1500 C 76.917969 1500 57.839844 1492.097656 43.773438 1478.03125 C 29.710938 1463.96875 21.808594 1444.890625 21.808594 1425 L 21.808594 82.320312 C 21.808594 62.429688 29.710938 43.351562 43.773438 29.285156 C 57.839844 15.222656 76.917969 7.320312 96.808594 7.320312 Z M 96.808594 7.320312 " clip-rule="nonzero"/></clipPath><clipPath id="4407b4bba3"><path d="M 0.808594 0.320312 L 1457.191406 0.320312 L 1457.191406 1491 L 0.808594 1491 Z M 0.808594 0.320312 " clip-rule="nonzero"/></clipPath><clipPath id="588fc604e7"><path d="M 75.808594 0.320312 L 1382.191406 0.320312 C 1402.082031 0.320312 1421.160156 8.222656 1435.226562 22.285156 C 1449.289062 36.351562 1457.191406 55.429688 1457.191406 75.320312 L 1457.191406 1418 C 1457.191406 1437.890625 1449.289062 1456.96875 1435.226562 1471.03125 C 1421.160156 1485.097656 1402.082031 1493 1382.191406 1493 L 75.808594 1493 C 55.917969 1493 36.839844 1485.097656 22.773438 1471.03125 C 8.710938 1456.96875 0.808594 1437.890625 0.808594 1418 L 0.808594 75.320312 C 0.808594 55.429688 8.710938 36.351562 22.773438 22.285156 C 36.839844 8.222656 55.917969 0.320312 75.808594 0.320312 Z M 75.808594 0.320312 " clip-rule="nonzero"/></clipPath><clipPath id="279db2ff49"><rect x="0" width="1458" y="0" height="1493"/></clipPath><clipPath id="5953eb83a9"><path d="M 325.558594 257.28125 L 1256.265625 257.28125 L 1256.265625 753.660156 L 325.558594 753.660156 Z M 325.558594 257.28125 " clip-rule="nonzero"/></clipPath><clipPath id="a0ccd8255f"><path d="M 964.101562 257.28125 L 617.722656 257.28125 C 569.699219 257.28125 523.644531 276.359375 489.691406 310.316406 L 347.566406 452.4375 C 318.277344 481.726562 318.277344 529.214844 347.566406 558.503906 L 489.691406 700.625 C 523.644531 734.582031 569.699219 753.660156 617.722656 753.660156 L 964.101562 753.660156 C 1012.121094 753.660156 1058.175781 734.582031 1092.132812 700.625 L 1234.253906 558.503906 C 1263.542969 529.214844 1263.542969 481.726562 1234.253906 452.4375 L 1092.132812 310.316406 C 1058.175781 276.359375 1012.121094 257.28125 964.101562 257.28125 Z M 964.101562 257.28125 " clip-rule="nonzero"/></clipPath><clipPath id="b77be2a7f8"><path d="M 0.558594 0.28125 L 931.265625 0.28125 L 931.265625 496.660156 L 0.558594 496.660156 Z M 0.558594 0.28125 " clip-rule="nonzero"/></clipPath><clipPath id="76d667c9bb"><path d="M 639.101562 0.28125 L 292.722656 0.28125 C 244.699219 0.28125 198.644531 19.359375 164.691406 53.316406 L 22.566406 195.4375 C -6.722656 224.726562 -6.722656 272.214844 22.566406 301.503906 L 164.691406 443.625 C 198.644531 477.582031 244.699219 496.660156 292.722656 496.660156 L 639.101562 496.660156 C 687.121094 496.660156 733.175781 477.582031 767.132812 443.625 L 909.253906 301.503906 C 938.542969 272.214844 938.542969 224.726562 909.253906 195.4375 L 767.132812 53.316406 C 733.175781 19.359375 687.121094 0.28125 639.101562 0.28125 Z M 639.101562 0.28125 " clip-rule="nonzero"/></clipPath><clipPath id="44ecfa4352"><rect x="0" width="932" y="0" height="497"/></clipPath><clipPath id="6aa2de7a66"><path d="M 82.746094 505.472656 L 1013.453125 505.472656 L 1013.453125 1001.847656 L 82.746094 1001.847656 Z M 82.746094 505.472656 " clip-rule="nonzero"/></clipPath><clipPath id="2ad4161760"><path d="M 721.289062 505.472656 L 374.914062 505.472656 C 326.890625 505.472656 280.835938 524.546875 246.878906 558.503906 L 104.757812 700.625 C 75.46875 729.917969 75.46875 777.402344 104.757812 806.691406 L 246.878906 948.816406 C 280.835938 982.773438 326.890625 1001.847656 374.914062 1001.847656 L 721.289062 1001.847656 C 769.3125 1001.847656 815.367188 982.773438 849.320312 948.816406 L 991.445312 806.691406 C 1020.734375 777.402344 1020.734375 729.917969 991.445312 700.625 L 849.320312 558.503906 C 815.367188 524.546875 769.3125 505.472656 721.289062 505.472656 Z M 721.289062 505.472656 " clip-rule="nonzero"/></clipPath><clipPath id="86ab1309db"><path d="M 0.746094 0.472656 L 931.453125 0.472656 L 931.453125 496.847656 L 0.746094 496.847656 Z M 0.746094 0.472656 " clip-rule="nonzero"/></clipPath><clipPath id="6d3cb6b0fc"><path d="M 639.289062 0.472656 L 292.914062 0.472656 C 244.890625 0.472656 198.835938 19.546875 164.878906 53.503906 L 22.757812 195.625 C -6.53125 224.917969 -6.53125 272.402344 22.757812 301.691406 L 164.878906 443.816406 C 198.835938 477.773438 244.890625 496.847656 292.914062 496.847656 L 639.289062 496.847656 C 687.3125 496.847656 733.367188 477.773438 767.320312 443.816406 L 909.445312 301.691406 C 938.734375 272.402344 938.734375 224.917969 909.445312 195.625 L 767.320312 53.503906 C 733.367188 19.546875 687.3125 0.472656 639.289062 0.472656 Z M 639.289062 0.472656 " clip-rule="nonzero"/></clipPath><clipPath id="01a0547529"><rect x="0" width="932" y="0" height="497"/></clipPath><clipPath id="fb6982ef85"><path d="M 325.558594 753.660156 L 1256.265625 753.660156 L 1256.265625 1250.035156 L 325.558594 1250.035156 Z M 325.558594 753.660156 " clip-rule="nonzero"/></clipPath><clipPath id="1d0e4dbdd1"><path d="M 964.101562 753.660156 L 617.722656 753.660156 C 569.699219 753.660156 523.644531 772.738281 489.691406 806.691406 L 347.566406 948.816406 C 318.277344 978.105469 318.277344 1025.59375 347.566406 1054.882812 L 489.691406 1197.003906 C 523.644531 1230.960938 569.699219 1250.035156 617.722656 1250.035156 L 964.101562 1250.035156 C 1012.121094 1250.035156 1058.175781 1230.960938 1092.132812 1197.003906 L 1234.253906 1054.882812 C 1263.542969 1025.59375 1263.542969 978.105469 1234.253906 948.816406 L 1092.132812 806.691406 C 1058.175781 772.738281 1012.121094 753.660156 964.101562 753.660156 Z M 964.101562 753.660156 " clip-rule="nonzero"/></clipPath><clipPath id="fa7487dca8"><path d="M 0.558594 0.660156 L 931.265625 0.660156 L 931.265625 497.035156 L 0.558594 497.035156 Z M 0.558594 0.660156 " clip-rule="nonzero"/></clipPath><clipPath id="68ff0062fd"><path d="M 639.101562 0.660156 L 292.722656 0.660156 C 244.699219 0.660156 198.644531 19.738281 164.691406 53.691406 L 22.566406 195.816406 C -6.722656 225.105469 -6.722656 272.59375 22.566406 301.882812 L 164.691406 444.003906 C 198.644531 477.960938 244.699219 497.035156 292.722656 497.035156 L 639.101562 497.035156 C 687.121094 497.035156 733.175781 477.960938 767.132812 444.003906 L 909.253906 301.882812 C 938.542969 272.59375 938.542969 225.105469 909.253906 195.816406 L 767.132812 53.691406 C 733.175781 19.738281 687.121094 0.660156 639.101562 0.660156 Z M 639.101562 0.660156 " clip-rule="nonzero"/></clipPath><clipPath id="216b262113"><rect x="0" width="932" y="0" height="498"/></clipPath></defs><g clip-path="url(#72692b7bfa)"><g clip-path="url(#b9c2bb5647)"><g transform="matrix(1, 0, 0, 1, 21, 7)"><g clip-path="url(#279db2ff49)"><g clip-path="url(#4407b4bba3)"><g clip-path="url(#588fc604e7)"><path fill="#38b6ff" d="M 0.808594 0.320312 L 1457.191406 0.320312 L 1457.191406 1490.835938 L 0.808594 1490.835938 Z M 0.808594 0.320312 " fill-opacity="1" fill-rule="nonzero"/></g></g></g></g></g></g><g clip-path="url(#5953eb83a9)"><g clip-path="url(#a0ccd8255f)"><g transform="matrix(1, 0, 0, 1, 325, 257)"><g clip-path="url(#44ecfa4352)"><g clip-path="url(#b77be2a7f8)"><g clip-path="url(#76d667c9bb)"><path fill="#6bc9ff" d="M -30.464844 0.28125 L 962.289062 0.28125 L 962.289062 496.660156 L -30.464844 496.660156 Z M -30.464844 0.28125 " fill-opacity="1" fill-rule="nonzero"/></g></g></g></g></g></g><g clip-path="url(#6aa2de7a66)"><g clip-path="url(#2ad4161760)"><g transform="matrix(1, 0, 0, 1, 82, 505)"><g clip-path="url(#01a0547529)"><g clip-path="url(#86ab1309db)"><g clip-path="url(#6d3cb6b0fc)"><path fill="#a2dafa" d="M -30.277344 0.472656 L 962.476562 0.472656 L 962.476562 496.847656 L -30.277344 496.847656 Z M -30.277344 0.472656 " fill-opacity="1" fill-rule="nonzero"/></g></g></g></g></g></g><g clip-path="url(#fb6982ef85)"><g clip-path="url(#1d0e4dbdd1)"><g transform="matrix(1, 0, 0, 1, 325, 753)"><g clip-path="url(#216b262113)"><g clip-path="url(#fa7487dca8)"><g clip-path="url(#68ff0062fd)"><path fill="#bfe6fd" d="M -30.464844 0.660156 L 962.289062 0.660156 L 962.289062 497.035156 L -30.464844 497.035156 Z M -30.464844 0.660156 " fill-opacity="1" fill-rule="nonzero"/></g></g></g></g></g></g></svg>