<svg xmlns="http://www.w3.org/2000/svg" xmlns:xlink="http://www.w3.org/1999/xlink" width="2000" zoomAndPan="magnify" viewBox="0 0 1500 1499.999933" height="2000" preserveAspectRatio="xMidYMid meet" version="1.0"><defs><clipPath id="7e09f5d59c"><path d="M 21.808594 7.320312 L 1478.191406 7.320312 L 1478.191406 1500 L 21.808594 1500 Z M 21.808594 7.320312 " clip-rule="nonzero"/></clipPath><clipPath id="5e168b5152"><path d="M 96.808594 7.320312 L 1403.191406 7.320312 C 1423.082031 7.320312 1442.160156 15.222656 1456.226562 29.285156 C 1470.289062 43.351562 1478.191406 62.429688 1478.191406 82.320312 L 1478.191406 1425 C 1478.191406 1444.890625 1470.289062 1463.96875 1456.226562 1478.03125 C 1442.160156 1492.097656 1423.082031 1500 1403.191406 1500 L 96.808594 1500 C 76.917969 1500 57.839844 1492.097656 43.773438 1478.03125 C 29.710938 1463.96875 21.808594 1444.890625 21.808594 1425 L 21.808594 82.320312 C 21.808594 62.429688 29.710938 43.351562 43.773438 29.285156 C 57.839844 15.222656 76.917969 7.320312 96.808594 7.320312 Z M 96.808594 7.320312 " clip-rule="nonzero"/></clipPath><clipPath id="03d65aa753"><path d="M 0.808594 0.320312 L 1457.191406 0.320312 L 1457.191406 1491 L 0.808594 1491 Z M 0.808594 0.320312 " clip-rule="nonzero"/></clipPath><clipPath id="e6a9389d11"><path d="M 75.808594 0.320312 L 1382.191406 0.320312 C 1402.082031 0.320312 1421.160156 8.222656 1435.226562 22.285156 C 1449.289062 36.351562 1457.191406 55.429688 1457.191406 75.320312 L 1457.191406 1418 C 1457.191406 1437.890625 1449.289062 1456.96875 1435.226562 1471.03125 C 1421.160156 1485.097656 1402.082031 1493 1382.191406 1493 L 75.808594 1493 C 55.917969 1493 36.839844 1485.097656 22.773438 1471.03125 C 8.710938 1456.96875 0.808594 1437.890625 0.808594 1418 L 0.808594 75.320312 C 0.808594 55.429688 8.710938 36.351562 22.773438 22.285156 C 36.839844 8.222656 55.917969 0.320312 75.808594 0.320312 Z M 75.808594 0.320312 " clip-rule="nonzero"/></clipPath><clipPath id="418e2c85be"><rect x="0" width="1458" y="0" height="1493"/></clipPath><clipPath id="ef76b3348f"><path d="M 96 411 L 1403.871094 411 L 1403.871094 1095.667969 L 96 1095.667969 Z M 96 411 " clip-rule="nonzero"/></clipPath><clipPath id="d502e36723"><path d="M 976.699219 411.652344 L 523.300781 411.652344 C 474.980469 411.652344 428.335938 429.351562 392.179688 461.40625 L 118.671875 703.902344 C 104.4375 716.523438 96.292969 734.636719 96.292969 753.660156 C 96.292969 772.683594 104.4375 790.796875 118.671875 803.414062 L 392.179688 1045.914062 C 428.335938 1077.96875 474.980469 1095.667969 523.300781 1095.667969 L 976.699219 1095.667969 C 1025.019531 1095.667969 1071.664062 1077.96875 1107.820312 1045.914062 L 1381.328125 803.414062 C 1395.5625 790.796875 1403.707031 772.683594 1403.707031 753.660156 C 1403.707031 734.636719 1395.5625 716.523438 1381.328125 703.902344 L 1107.820312 461.40625 C 1071.664062 429.351562 1025.019531 411.652344 976.699219 411.652344 Z M 976.699219 411.652344 " clip-rule="nonzero"/></clipPath><clipPath id="49acee321b"><path d="M 0.238281 0.601562 L 1307.761719 0.601562 L 1307.761719 684.667969 L 0.238281 684.667969 Z M 0.238281 0.601562 " clip-rule="nonzero"/></clipPath><clipPath id="c2a147f49d"><path d="M 880.699219 0.652344 L 427.300781 0.652344 C 378.980469 0.652344 332.335938 18.351562 296.179688 50.40625 L 22.671875 292.902344 C 8.4375 305.523438 0.292969 323.636719 0.292969 342.660156 C 0.292969 361.683594 8.4375 379.796875 22.671875 392.414062 L 296.179688 634.914062 C 332.335938 666.96875 378.980469 684.667969 427.300781 684.667969 L 880.699219 684.667969 C 929.019531 684.667969 975.664062 666.96875 1011.820312 634.914062 L 1285.328125 392.414062 C 1299.5625 379.796875 1307.707031 361.683594 1307.707031 342.660156 C 1307.707031 323.636719 1299.5625 305.523438 1285.328125 292.902344 L 1011.820312 50.40625 C 975.664062 18.351562 929.019531 0.652344 880.699219 0.652344 Z M 880.699219 0.652344 " clip-rule="nonzero"/></clipPath><clipPath id="76c4cb5c37"><rect x="0" width="1308" y="0" height="685"/></clipPath><clipPath id="4e40e0eacd"><path d="M 407 99.785156 L 1092.011719 99.785156 L 1092.011719 1408 L 407 1408 Z M 407 99.785156 " clip-rule="nonzero"/></clipPath><clipPath id="44f1b92e55"><path d="M 407.992188 526.957031 L 407.992188 980.355469 C 407.992188 1028.675781 425.695312 1075.320312 457.75 1111.476562 L 700.246094 1384.984375 C 712.867188 1399.21875 730.980469 1407.363281 750.003906 1407.363281 C 769.027344 1407.363281 787.136719 1399.21875 799.757812 1384.984375 L 1042.253906 1111.476562 C 1074.3125 1075.320312 1092.011719 1028.675781 1092.011719 980.355469 L 1092.011719 526.957031 C 1092.011719 478.636719 1074.3125 431.992188 1042.253906 395.835938 L 799.757812 122.328125 C 787.136719 108.09375 769.027344 99.949219 750.003906 99.949219 C 730.980469 99.949219 712.867188 108.09375 700.246094 122.328125 L 457.75 395.835938 C 425.695312 431.992188 407.992188 478.636719 407.992188 526.957031 Z M 407.992188 526.957031 " clip-rule="nonzero"/></clipPath><clipPath id="ca406ae8f2"><path d="M 0.761719 0.839844 L 685.011719 0.839844 L 685.011719 1308.601562 L 0.761719 1308.601562 Z M 0.761719 0.839844 " clip-rule="nonzero"/></clipPath><clipPath id="19afc53923"><path d="M 0.992188 427.957031 L 0.992188 881.355469 C 0.992188 929.675781 18.695312 976.320312 50.75 1012.476562 L 293.246094 1285.984375 C 305.867188 1300.21875 323.980469 1308.363281 343.003906 1308.363281 C 362.027344 1308.363281 380.136719 1300.21875 392.757812 1285.984375 L 635.253906 1012.476562 C 667.3125 976.320312 685.011719 929.675781 685.011719 881.355469 L 685.011719 427.957031 C 685.011719 379.636719 667.3125 332.992188 635.253906 296.835938 L 392.757812 23.328125 C 380.136719 9.09375 362.027344 0.949219 343.003906 0.949219 C 323.980469 0.949219 305.867188 9.09375 293.246094 23.328125 L 50.75 296.835938 C 18.695312 332.992188 0.992188 379.636719 0.992188 427.957031 Z M 0.992188 427.957031 " clip-rule="nonzero"/></clipPath><clipPath id="d0d77e1880"><rect x="0" width="686" y="0" height="1309"/></clipPath><clipPath id="06e54faca8"><path d="M 407.992188 452.582031 L 1092.050781 452.582031 L 1092.050781 1046.207031 L 407.992188 1046.207031 Z M 407.992188 452.582031 " clip-rule="nonzero"/></clipPath><clipPath id="41b0222b86"><path d="M 482.992188 452.582031 L 1017.007812 452.582031 C 1058.429688 452.582031 1092.007812 486.160156 1092.007812 527.582031 L 1092.007812 971.207031 C 1092.007812 1012.628906 1058.429688 1046.207031 1017.007812 1046.207031 L 482.992188 1046.207031 C 441.570312 1046.207031 407.992188 1012.628906 407.992188 971.207031 L 407.992188 527.582031 C 407.992188 486.160156 441.570312 452.582031 482.992188 452.582031 Z M 482.992188 452.582031 " clip-rule="nonzero"/></clipPath><clipPath id="3cd0b05745"><path d="M 0.992188 0.582031 L 685.050781 0.582031 L 685.050781 594.207031 L 0.992188 594.207031 Z M 0.992188 0.582031 " clip-rule="nonzero"/></clipPath><clipPath id="c374f98160"><path d="M 75.992188 0.582031 L 610.007812 0.582031 C 651.429688 0.582031 685.007812 34.160156 685.007812 75.582031 L 685.007812 519.207031 C 685.007812 560.628906 651.429688 594.207031 610.007812 594.207031 L 75.992188 594.207031 C 34.570312 594.207031 0.992188 560.628906 0.992188 519.207031 L 0.992188 75.582031 C 0.992188 34.160156 34.570312 0.582031 75.992188 0.582031 Z M 75.992188 0.582031 " clip-rule="nonzero"/></clipPath><clipPath id="b6d5864d99"><rect x="0" width="686" y="0" height="595"/></clipPath></defs><g clip-path="url(#7e09f5d59c)"><g clip-path="url(#5e168b5152)"><g transform="matrix(1, 0, 0, 1, 21, 7)"><g clip-path="url(#418e2c85be)"><g clip-path="url(#03d65aa753)"><g clip-path="url(#e6a9389d11)"><path fill="#ff9f1c" d="M 0.808594 0.320312 L 1457.191406 0.320312 L 1457.191406 1490.835938 L 0.808594 1490.835938 Z M 0.808594 0.320312 " fill-opacity="1" fill-rule="nonzero"/></g></g></g></g></g></g><g clip-path="url(#ef76b3348f)"><g clip-path="url(#d502e36723)"><g transform="matrix(1, 0, 0, 1, 96, 411)"><g clip-path="url(#76c4cb5c37)"><g clip-path="url(#49acee321b)"><g clip-path="url(#c2a147f49d)"><path fill="#f9e2c3" d="M -33.445312 0.652344 L 1342.605469 0.652344 L 1342.605469 684.667969 L -33.445312 684.667969 Z M -33.445312 0.652344 " fill-opacity="1" fill-rule="nonzero"/></g></g></g></g></g></g><g clip-path="url(#4e40e0eacd)"><g clip-path="url(#44f1b92e55)"><g transform="matrix(1, 0, 0, 1, 407, 99)"><g clip-path="url(#d0d77e1880)"><g clip-path="url(#ca406ae8f2)"><g clip-path="url(#19afc53923)"><path fill="#fcb85c" d="M 0.992188 1342.101562 L 0.992188 -33.949219 L 685.011719 -33.949219 L 685.011719 1342.101562 Z M 0.992188 1342.101562 " fill-opacity="1" fill-rule="nonzero"/></g></g></g></g></g></g><g clip-path="url(#06e54faca8)"><g clip-path="url(#41b0222b86)"><g transform="matrix(1, 0, 0, 1, 407, 452)"><g clip-path="url(#b6d5864d99)"><g clip-path="url(#3cd0b05745)"><g clip-path="url(#c374f98160)"><path fill="#ffce8c" d="M 0.992188 0.582031 L 685.050781 0.582031 L 685.050781 594.207031 L 0.992188 594.207031 Z M 0.992188 0.582031 " fill-opacity="1" fill-rule="nonzero"/></g></g></g></g></g></g></svg>